<svg width="210" height="21" viewBox="0 0 210 21" fill="none" xmlns="http://www.w3.org/2000/svg">
<path d="M12.3139 19.3466C12.3015 19.8852 11.8013 20.2759 11.3011 20.1854C11.9877 20.3102 13.5854 20.4849 14.4841 20.1854C13.9633 20.2635 13.4879 19.8688 13.4755 19.3424C13.4755 19.3712 13.1241 16.5792 14.5296 13.9969C15.7325 11.7887 16.4022 12.019 17.8118 11.4844C19.6183 10.7977 21.4743 10.0905 22.7475 8.54846C24.8268 6.02781 24.277 2.57373 24.0992 1.64031C21.867 4.82711 19.6059 3.92247 17.3282 5.374C15.0133 6.85021 13.9798 9.1776 14.203 11.6695C16.4973 7.68083 19.395 9.43665 22.3879 5.44802C21.6603 6.64872 20.6641 7.69317 19.424 8.43744C17.6423 9.52301 16.7825 9.20638 14.0832 13.1046C13.5871 13.82 13.1861 14.6013 12.8968 15.4196C12.5619 14.4738 12.0783 13.5651 11.4665 12.7674C10.2388 11.176 9.69725 10.2755 8.62248 9.50656C7.15086 8.44566 4.64581 8.03857 2.6244 4.69141C5.99754 9.19404 9.15986 7.13805 11.7311 11.616C11.9873 8.77873 10.7803 6.22518 8.25457 4.61328C5.72058 2.99727 3.20726 4.00471 0.722874 0.456055C0.524454 1.49639 -0.0873394 5.3411 2.22756 8.14549C3.64065 9.85849 5.69426 10.6403 7.69683 11.4027L7.71719 11.4104C8.68035 11.7764 11.1565 11.8874 12.1238 16.2749C12.3883 17.4921 12.3429 18.1952 12.3139 19.3466Z" fill="#00730C"/>
<path d="M32.5471 15.4906C30.9884 15.4906 30.2091 14.6179 30.2091 12.8726V6.25059C30.2091 5.66259 30.4984 5.36859 31.0771 5.36859C31.6651 5.36859 31.9591 5.66259 31.9591 6.25059V12.7886C31.9591 13.6286 32.3091 14.0486 33.0091 14.0486C33.0837 14.0486 33.1537 14.0486 33.2191 14.0486C33.2844 14.0393 33.3497 14.0299 33.4151 14.0206C33.5457 14.0019 33.6344 14.0393 33.6811 14.1326C33.7277 14.2166 33.7511 14.3939 33.7511 14.6646C33.7511 14.8979 33.7044 15.0799 33.6111 15.2106C33.5177 15.3413 33.3637 15.4206 33.1491 15.4486C32.9531 15.4766 32.7524 15.4906 32.5471 15.4906ZM36.9338 15.4906C36.4391 15.4906 35.9958 15.3973 35.6038 15.2106C35.2211 15.0146 34.9178 14.7533 34.6938 14.4266C34.4791 14.0999 34.3718 13.7313 34.3718 13.3206C34.3718 12.8166 34.5024 12.4199 34.7638 12.1306C35.0251 11.8319 35.4498 11.6173 36.0378 11.4866C36.6258 11.3559 37.4144 11.2906 38.4038 11.2906H38.8938V10.9966C38.8938 10.5299 38.7911 10.1939 38.5858 9.98859C38.3804 9.78325 38.0351 9.68059 37.5498 9.68059C37.2791 9.68059 36.9851 9.71325 36.6678 9.77859C36.3598 9.84392 36.0331 9.95592 35.6878 10.1146C35.4638 10.2173 35.2771 10.2313 35.1278 10.1566C34.9784 10.0726 34.8758 9.94659 34.8198 9.77859C34.7731 9.60125 34.7824 9.42392 34.8478 9.24659C34.9224 9.06925 35.0671 8.93859 35.2818 8.85459C35.7111 8.67725 36.1218 8.55125 36.5138 8.47659C36.9151 8.40192 37.2791 8.36459 37.6058 8.36459C38.6044 8.36459 39.3464 8.59792 39.8318 9.06459C40.3171 9.52192 40.5598 10.2359 40.5598 11.2066V14.5666C40.5598 15.1639 40.2891 15.4626 39.7478 15.4626C39.1971 15.4626 38.9218 15.1639 38.9218 14.5666V14.2586C38.7631 14.6413 38.5111 14.9446 38.1658 15.1686C37.8204 15.3833 37.4098 15.4906 36.9338 15.4906ZM37.2978 14.2866C37.7551 14.2866 38.1331 14.1279 38.4318 13.8106C38.7398 13.4933 38.8938 13.0919 38.8938 12.6066V12.2986H38.4178C37.5404 12.2986 36.9291 12.3686 36.5838 12.5086C36.2478 12.6393 36.0798 12.8819 36.0798 13.2366C36.0798 13.5446 36.1871 13.7966 36.4018 13.9926C36.6164 14.1886 36.9151 14.2866 37.2978 14.2866ZM43.204 15.4626C42.6254 15.4626 42.336 15.1639 42.336 14.5666V9.27459C42.336 8.68659 42.6207 8.39259 43.19 8.39259C43.7594 8.39259 44.044 8.68659 44.044 9.27459V9.56859C44.2774 9.17659 44.59 8.87792 44.982 8.67259C45.3834 8.46725 45.8314 8.36459 46.326 8.36459C47.9407 8.36459 48.748 9.30259 48.748 11.1786V14.5666C48.748 15.1639 48.4587 15.4626 47.88 15.4626C47.292 15.4626 46.998 15.1639 46.998 14.5666V11.2626C46.998 10.7306 46.8954 10.3433 46.69 10.1006C46.494 9.85792 46.186 9.73659 45.766 9.73659C45.2527 9.73659 44.842 9.89992 44.534 10.2266C44.2354 10.5439 44.086 10.9686 44.086 11.5006V14.5666C44.086 15.1639 43.792 15.4626 43.204 15.4626ZM53.1575 15.4906C52.5601 15.4906 52.0328 15.3459 51.5755 15.0566C51.1275 14.7673 50.7775 14.3566 50.5255 13.8246C50.2735 13.2833 50.1475 12.6486 50.1475 11.9206C50.1475 11.1833 50.2735 10.5533 50.5255 10.0306C50.7775 9.49859 51.1275 9.08792 51.5755 8.79859C52.0328 8.50925 52.5601 8.36459 53.1575 8.36459C53.6428 8.36459 54.0815 8.47192 54.4735 8.68659C54.8655 8.90125 55.1595 9.18592 55.3555 9.54059V6.25059C55.3555 5.66259 55.6448 5.36859 56.2235 5.36859C56.8115 5.36859 57.1055 5.66259 57.1055 6.25059V14.5666C57.1055 15.1639 56.8161 15.4626 56.2375 15.4626C55.6588 15.4626 55.3695 15.1639 55.3695 14.5666V14.2726C55.1735 14.6459 54.8795 14.9446 54.4875 15.1686C54.0955 15.3833 53.6521 15.4906 53.1575 15.4906ZM53.6475 14.1606C54.1701 14.1606 54.5901 13.9739 54.9075 13.6006C55.2248 13.2179 55.3835 12.6579 55.3835 11.9206C55.3835 11.1739 55.2248 10.6186 54.9075 10.2546C54.5901 9.88125 54.1701 9.69459 53.6475 9.69459C53.1248 9.69459 52.7048 9.88125 52.3875 10.2546C52.0701 10.6186 51.9115 11.1739 51.9115 11.9206C51.9115 12.6579 52.0701 13.2179 52.3875 13.6006C52.7048 13.9739 53.1248 14.1606 53.6475 14.1606ZM61.426 15.4906C61.0247 15.4906 60.6 15.4486 60.152 15.3646C59.704 15.2806 59.3027 15.1359 58.948 14.9306C58.752 14.8186 58.6307 14.6833 58.584 14.5246C58.5373 14.3566 58.542 14.2026 58.598 14.0626C58.6633 13.9133 58.766 13.8059 58.906 13.7406C59.0553 13.6753 59.228 13.6893 59.424 13.7826C59.7973 13.9599 60.1473 14.0859 60.474 14.1606C60.8007 14.2259 61.1227 14.2586 61.44 14.2586C61.888 14.2586 62.2193 14.1839 62.434 14.0346C62.658 13.8759 62.77 13.6706 62.77 13.4186C62.77 13.0266 62.4807 12.7746 61.902 12.6626L60.502 12.3966C59.3167 12.1726 58.724 11.5566 58.724 10.5486C58.724 10.1006 58.8453 9.71325 59.088 9.38659C59.34 9.05992 59.6853 8.80792 60.124 8.63059C60.5627 8.45325 61.0667 8.36459 61.636 8.36459C62.4573 8.36459 63.19 8.54659 63.834 8.91059C64.0113 9.00392 64.114 9.13459 64.142 9.30259C64.1793 9.46125 64.1607 9.61525 64.086 9.76459C64.0207 9.90459 63.9133 10.0073 63.764 10.0726C63.6147 10.1286 63.442 10.1099 63.246 10.0166C62.9567 9.86725 62.6767 9.75992 62.406 9.69459C62.1447 9.62925 61.8927 9.59659 61.65 9.59659C61.1927 9.59659 60.852 9.67592 60.628 9.83459C60.4133 9.99325 60.306 10.2033 60.306 10.4646C60.306 10.8753 60.572 11.1273 61.104 11.2206L62.504 11.4866C63.1107 11.5986 63.568 11.8039 63.876 12.1026C64.1933 12.4013 64.352 12.8026 64.352 13.3066C64.352 13.9879 64.086 14.5246 63.554 14.9166C63.022 15.2993 62.3127 15.4906 61.426 15.4906ZM68.9199 15.4906C68.2013 15.4906 67.5759 15.3459 67.0439 15.0566C66.5119 14.7579 66.1013 14.3379 65.8119 13.7966C65.5226 13.2553 65.3779 12.6206 65.3779 11.8926C65.3779 11.1646 65.5226 10.5393 65.8119 10.0166C66.1013 9.48459 66.5119 9.07859 67.0439 8.79859C67.5759 8.50925 68.2013 8.36459 68.9199 8.36459C69.2279 8.36459 69.5593 8.40659 69.9139 8.49059C70.2779 8.57459 70.6186 8.71459 70.9359 8.91059C71.1226 9.02259 71.2299 9.16725 71.2579 9.34459C71.2953 9.52192 71.2719 9.68525 71.1879 9.83459C71.1133 9.98392 70.9966 10.0913 70.8379 10.1566C70.6886 10.2219 70.5159 10.1986 70.3199 10.0866C69.8906 9.84392 69.4753 9.72259 69.0739 9.72259C68.4673 9.72259 67.9959 9.91392 67.6599 10.2966C67.3333 10.6699 67.1699 11.2066 67.1699 11.9066C67.1699 12.5973 67.3333 13.1433 67.6599 13.5446C67.9959 13.9366 68.4673 14.1326 69.0739 14.1326C69.4753 14.1326 69.8906 14.0159 70.3199 13.7826C70.5159 13.6706 70.6886 13.6473 70.8379 13.7126C70.9873 13.7779 71.0946 13.8899 71.1599 14.0486C71.2253 14.1979 71.2393 14.3613 71.2019 14.5386C71.1646 14.7066 71.0573 14.8466 70.8799 14.9586C70.5719 15.1453 70.2453 15.2806 69.8999 15.3646C69.5546 15.4486 69.2279 15.4906 68.9199 15.4906ZM74.5724 15.4906C74.0778 15.4906 73.6344 15.3973 73.2424 15.2106C72.8598 15.0146 72.5564 14.7533 72.3324 14.4266C72.1178 14.0999 72.0104 13.7313 72.0104 13.3206C72.0104 12.8166 72.1411 12.4199 72.4024 12.1306C72.6638 11.8319 73.0884 11.6173 73.6764 11.4866C74.2644 11.3559 75.0531 11.2906 76.0424 11.2906H76.5324V10.9966C76.5324 10.5299 76.4298 10.1939 76.2244 9.98859C76.0191 9.78325 75.6738 9.68059 75.1884 9.68059C74.9178 9.68059 74.6238 9.71325 74.3064 9.77859C73.9984 9.84392 73.6718 9.95592 73.3264 10.1146C73.1024 10.2173 72.9158 10.2313 72.7664 10.1566C72.6171 10.0726 72.5144 9.94659 72.4584 9.77859C72.4118 9.60125 72.4211 9.42392 72.4864 9.24659C72.5611 9.06925 72.7058 8.93859 72.9204 8.85459C73.3498 8.67725 73.7604 8.55125 74.1524 8.47659C74.5538 8.40192 74.9178 8.36459 75.2444 8.36459C76.2431 8.36459 76.9851 8.59792 77.4704 9.06459C77.9558 9.52192 78.1984 10.2359 78.1984 11.2066V14.5666C78.1984 15.1639 77.9278 15.4626 77.3864 15.4626C76.8358 15.4626 76.5604 15.1639 76.5604 14.5666V14.2586C76.4018 14.6413 76.1498 14.9446 75.8044 15.1686C75.4591 15.3833 75.0484 15.4906 74.5724 15.4906ZM74.9364 14.2866C75.3938 14.2866 75.7718 14.1279 76.0704 13.8106C76.3784 13.4933 76.5324 13.0919 76.5324 12.6066V12.2986H76.0564C75.1791 12.2986 74.5678 12.3686 74.2224 12.5086C73.8864 12.6393 73.7184 12.8819 73.7184 13.2366C73.7184 13.5446 73.8258 13.7966 74.0404 13.9926C74.2551 14.1886 74.5538 14.2866 74.9364 14.2866ZM80.8427 17.9826C80.264 17.9826 79.9747 17.6886 79.9747 17.1006V9.27459C79.9747 8.68659 80.2594 8.39259 80.8287 8.39259C81.4074 8.39259 81.6967 8.68659 81.6967 9.27459V9.56859C81.8927 9.20459 82.1867 8.91525 82.5787 8.70059C82.9707 8.47659 83.4187 8.36459 83.9227 8.36459C84.52 8.36459 85.0427 8.50925 85.4907 8.79859C85.948 9.08792 86.3027 9.49859 86.5547 10.0306C86.8067 10.5533 86.9327 11.1833 86.9327 11.9206C86.9327 12.6486 86.8067 13.2833 86.5547 13.8246C86.3027 14.3566 85.9527 14.7673 85.5047 15.0566C85.0567 15.3459 84.5294 15.4906 83.9227 15.4906C83.4374 15.4906 82.9987 15.3879 82.6067 15.1826C82.224 14.9679 81.93 14.6833 81.7247 14.3286V17.1006C81.7247 17.6886 81.4307 17.9826 80.8427 17.9826ZM83.4327 14.1606C83.9554 14.1606 84.3754 13.9739 84.6927 13.6006C85.01 13.2179 85.1687 12.6579 85.1687 11.9206C85.1687 11.1739 85.01 10.6186 84.6927 10.2546C84.3754 9.88125 83.9554 9.69459 83.4327 9.69459C82.91 9.69459 82.49 9.88125 82.1727 10.2546C81.8554 10.6186 81.6967 11.1739 81.6967 11.9206C81.6967 12.6579 81.8554 13.2179 82.1727 13.6006C82.49 13.9739 82.91 14.1606 83.4327 14.1606ZM91.7432 15.4906C90.9686 15.4906 90.3012 15.3459 89.7412 15.0566C89.1812 14.7673 88.7472 14.3566 88.4392 13.8246C88.1406 13.2926 87.9912 12.6626 87.9912 11.9346C87.9912 11.2253 88.1359 10.6046 88.4252 10.0726C88.7239 9.54059 89.1299 9.12525 89.6432 8.82659C90.1659 8.51859 90.7586 8.36459 91.4212 8.36459C92.3919 8.36459 93.1572 8.67259 93.7172 9.28859C94.2866 9.90459 94.5712 10.7446 94.5712 11.8086C94.5712 12.1539 94.3472 12.3266 93.8992 12.3266H89.6712C89.8019 13.5493 90.5019 14.1606 91.7712 14.1606C92.0139 14.1606 92.2846 14.1326 92.5832 14.0766C92.8912 14.0113 93.1806 13.9039 93.4512 13.7546C93.6939 13.6146 93.8992 13.5726 94.0672 13.6286C94.2352 13.6753 94.3519 13.7733 94.4172 13.9226C94.4919 14.0719 94.5012 14.2399 94.4452 14.4266C94.3986 14.6039 94.2679 14.7579 94.0532 14.8886C93.7266 15.0939 93.3486 15.2479 92.9192 15.3506C92.4992 15.4439 92.1072 15.4906 91.7432 15.4906ZM91.4912 9.55459C90.9779 9.55459 90.5626 9.71325 90.2452 10.0306C89.9279 10.3479 89.7366 10.7773 89.6712 11.3186H93.1152C93.0779 10.7493 92.9192 10.3153 92.6392 10.0166C92.3686 9.70859 91.9859 9.55459 91.4912 9.55459ZM100.626 17.9826C100.047 17.9826 99.7579 17.6886 99.7579 17.1006V9.27459C99.7579 8.68659 100.043 8.39259 100.612 8.39259C101.191 8.39259 101.48 8.68659 101.48 9.27459V9.56859C101.676 9.20459 101.97 8.91525 102.362 8.70059C102.754 8.47659 103.202 8.36459 103.706 8.36459C104.303 8.36459 104.826 8.50925 105.274 8.79859C105.731 9.08792 106.086 9.49859 106.338 10.0306C106.59 10.5533 106.716 11.1833 106.716 11.9206C106.716 12.6486 106.59 13.2833 106.338 13.8246C106.086 14.3566 105.736 14.7673 105.288 15.0566C104.84 15.3459 104.313 15.4906 103.706 15.4906C103.221 15.4906 102.782 15.3879 102.39 15.1826C102.007 14.9679 101.713 14.6833 101.508 14.3286V17.1006C101.508 17.6886 101.214 17.9826 100.626 17.9826ZM103.216 14.1606C103.739 14.1606 104.159 13.9739 104.476 13.6006C104.793 13.2179 104.952 12.6579 104.952 11.9206C104.952 11.1739 104.793 10.6186 104.476 10.2546C104.159 9.88125 103.739 9.69459 103.216 9.69459C102.693 9.69459 102.273 9.88125 101.956 10.2546C101.639 10.6186 101.48 11.1739 101.48 11.9206C101.48 12.6579 101.639 13.2179 101.956 13.6006C102.273 13.9739 102.693 14.1606 103.216 14.1606ZM110.49 15.4906C108.932 15.4906 108.152 14.6179 108.152 12.8726V6.25059C108.152 5.66259 108.442 5.36859 109.02 5.36859C109.608 5.36859 109.902 5.66259 109.902 6.25059V12.7886C109.902 13.6286 110.252 14.0486 110.952 14.0486C111.027 14.0486 111.097 14.0486 111.162 14.0486C111.228 14.0393 111.293 14.0299 111.358 14.0206C111.489 14.0019 111.578 14.0393 111.624 14.1326C111.671 14.2166 111.694 14.3939 111.694 14.6646C111.694 14.8979 111.648 15.0799 111.554 15.2106C111.461 15.3413 111.307 15.4206 111.092 15.4486C110.896 15.4766 110.696 15.4906 110.49 15.4906ZM114.877 15.4906C114.382 15.4906 113.939 15.3973 113.547 15.2106C113.164 15.0146 112.861 14.7533 112.637 14.4266C112.422 14.0999 112.315 13.7313 112.315 13.3206C112.315 12.8166 112.446 12.4199 112.707 12.1306C112.968 11.8319 113.393 11.6173 113.981 11.4866C114.569 11.3559 115.358 11.2906 116.347 11.2906H116.837V10.9966C116.837 10.5299 116.734 10.1939 116.529 9.98859C116.324 9.78325 115.978 9.68059 115.493 9.68059C115.222 9.68059 114.928 9.71325 114.611 9.77859C114.303 9.84392 113.976 9.95592 113.631 10.1146C113.407 10.2173 113.22 10.2313 113.071 10.1566C112.922 10.0726 112.819 9.94659 112.763 9.77859C112.716 9.60125 112.726 9.42392 112.791 9.24659C112.866 9.06925 113.01 8.93859 113.225 8.85459C113.654 8.67725 114.065 8.55125 114.457 8.47659C114.858 8.40192 115.222 8.36459 115.549 8.36459C116.548 8.36459 117.29 8.59792 117.775 9.06459C118.26 9.52192 118.503 10.2359 118.503 11.2066V14.5666C118.503 15.1639 118.232 15.4626 117.691 15.4626C117.14 15.4626 116.865 15.1639 116.865 14.5666V14.2586C116.706 14.6413 116.454 14.9446 116.109 15.1686C115.764 15.3833 115.353 15.4906 114.877 15.4906ZM115.241 14.2866C115.698 14.2866 116.076 14.1279 116.375 13.8106C116.683 13.4933 116.837 13.0919 116.837 12.6066V12.2986H116.361C115.484 12.2986 114.872 12.3686 114.527 12.5086C114.191 12.6393 114.023 12.8819 114.023 13.2366C114.023 13.5446 114.13 13.7966 114.345 13.9926C114.56 14.1886 114.858 14.2866 115.241 14.2866ZM121.147 15.4626C120.569 15.4626 120.279 15.1639 120.279 14.5666V9.27459C120.279 8.68659 120.564 8.39259 121.133 8.39259C121.703 8.39259 121.987 8.68659 121.987 9.27459V9.56859C122.221 9.17659 122.533 8.87792 122.925 8.67259C123.327 8.46725 123.775 8.36459 124.269 8.36459C125.884 8.36459 126.691 9.30259 126.691 11.1786V14.5666C126.691 15.1639 126.402 15.4626 125.823 15.4626C125.235 15.4626 124.941 15.1639 124.941 14.5666V11.2626C124.941 10.7306 124.839 10.3433 124.633 10.1006C124.437 9.85792 124.129 9.73659 123.709 9.73659C123.196 9.73659 122.785 9.89992 122.477 10.2266C122.179 10.5439 122.029 10.9686 122.029 11.5006V14.5666C122.029 15.1639 121.735 15.4626 121.147 15.4626ZM131.605 15.4906C129.794 15.4906 128.889 14.5946 128.889 12.8026V9.82059H128.161C127.694 9.82059 127.461 9.60125 127.461 9.16259C127.461 8.72392 127.694 8.50459 128.161 8.50459H128.889V7.23059C128.889 6.64259 129.183 6.34859 129.771 6.34859C130.35 6.34859 130.639 6.64259 130.639 7.23059V8.50459H132.123C132.59 8.50459 132.823 8.72392 132.823 9.16259C132.823 9.60125 132.59 9.82059 132.123 9.82059H130.639V12.7046C130.639 13.1526 130.737 13.4886 130.933 13.7126C131.129 13.9366 131.446 14.0486 131.885 14.0486C132.044 14.0486 132.184 14.0346 132.305 14.0066C132.426 13.9786 132.534 13.9599 132.627 13.9506C132.739 13.9413 132.832 13.9786 132.907 14.0626C132.982 14.1373 133.019 14.2959 133.019 14.5386C133.019 14.7253 132.986 14.8933 132.921 15.0426C132.865 15.1826 132.758 15.2806 132.599 15.3366C132.478 15.3739 132.319 15.4066 132.123 15.4346C131.927 15.4719 131.754 15.4906 131.605 15.4906ZM134.888 7.10459C134.561 7.10459 134.304 7.02525 134.118 6.86659C133.94 6.69859 133.852 6.46992 133.852 6.18059C133.852 5.88192 133.94 5.65325 134.118 5.49459C134.304 5.33592 134.561 5.25659 134.888 5.25659C135.578 5.25659 135.924 5.56459 135.924 6.18059C135.924 6.79659 135.578 7.10459 134.888 7.10459ZM134.888 15.4486C134.608 15.4486 134.393 15.3646 134.244 15.1966C134.094 15.0286 134.02 14.7953 134.02 14.4966V9.35859C134.02 8.72392 134.309 8.40659 134.888 8.40659C135.476 8.40659 135.77 8.72392 135.77 9.35859V14.4966C135.77 14.7953 135.695 15.0286 135.546 15.1966C135.396 15.3646 135.177 15.4486 134.888 15.4486ZM138.456 15.4626C137.877 15.4626 137.588 15.1639 137.588 14.5666V9.27459C137.588 8.68659 137.873 8.39259 138.442 8.39259C139.011 8.39259 139.296 8.68659 139.296 9.27459V9.56859C139.529 9.17659 139.842 8.87792 140.234 8.67259C140.635 8.46725 141.083 8.36459 141.578 8.36459C143.193 8.36459 144 9.30259 144 11.1786V14.5666C144 15.1639 143.711 15.4626 143.132 15.4626C142.544 15.4626 142.25 15.1639 142.25 14.5666V11.2626C142.25 10.7306 142.147 10.3433 141.942 10.1006C141.746 9.85792 141.438 9.73659 141.018 9.73659C140.505 9.73659 140.094 9.89992 139.786 10.2266C139.487 10.5439 139.338 10.9686 139.338 11.5006V14.5666C139.338 15.1639 139.044 15.4626 138.456 15.4626ZM148.969 18.0106C148.465 18.0106 147.975 17.9639 147.499 17.8706C147.033 17.7773 146.608 17.6326 146.225 17.4366C146.001 17.3246 145.866 17.1799 145.819 17.0026C145.782 16.8346 145.801 16.6713 145.875 16.5126C145.95 16.3539 146.062 16.2373 146.211 16.1626C146.37 16.0973 146.538 16.1066 146.715 16.1906C147.126 16.3959 147.513 16.5266 147.877 16.5826C148.251 16.6479 148.568 16.6806 148.829 16.6806C150.08 16.6806 150.705 16.0786 150.705 14.8746V13.9366C150.509 14.3193 150.206 14.6226 149.795 14.8466C149.394 15.0706 148.946 15.1826 148.451 15.1826C147.835 15.1826 147.299 15.0426 146.841 14.7626C146.384 14.4733 146.029 14.0719 145.777 13.5586C145.525 13.0453 145.399 12.4479 145.399 11.7666C145.399 11.0853 145.525 10.4926 145.777 9.98859C146.029 9.47525 146.384 9.07859 146.841 8.79859C147.299 8.50925 147.835 8.36459 148.451 8.36459C148.946 8.36459 149.394 8.47192 149.795 8.68659C150.197 8.90125 150.491 9.19525 150.677 9.56859V9.27459C150.677 8.98525 150.752 8.76592 150.901 8.61659C151.06 8.46725 151.275 8.39259 151.545 8.39259C152.124 8.39259 152.413 8.68659 152.413 9.27459V14.6646C152.413 15.7753 152.119 16.6106 151.531 17.1706C150.943 17.7306 150.089 18.0106 148.969 18.0106ZM148.927 13.8526C149.469 13.8526 149.898 13.6659 150.215 13.2926C150.533 12.9193 150.691 12.4106 150.691 11.7666C150.691 11.1226 150.533 10.6186 150.215 10.2546C149.898 9.88125 149.469 9.69459 148.927 9.69459C148.386 9.69459 147.957 9.88125 147.639 10.2546C147.322 10.6186 147.163 11.1226 147.163 11.7666C147.163 12.4106 147.322 12.9193 147.639 13.2926C147.957 13.6659 148.386 13.8526 148.927 13.8526ZM160.533 15.4906C160.132 15.4906 159.707 15.4486 159.259 15.3646C158.811 15.2806 158.41 15.1359 158.055 14.9306C157.859 14.8186 157.738 14.6833 157.691 14.5246C157.645 14.3566 157.649 14.2026 157.705 14.0626C157.771 13.9133 157.873 13.8059 158.013 13.7406C158.163 13.6753 158.335 13.6893 158.531 13.7826C158.905 13.9599 159.255 14.0859 159.581 14.1606C159.908 14.2259 160.23 14.2586 160.547 14.2586C160.995 14.2586 161.327 14.1839 161.541 14.0346C161.765 13.8759 161.877 13.6706 161.877 13.4186C161.877 13.0266 161.588 12.7746 161.009 12.6626L159.609 12.3966C158.424 12.1726 157.831 11.5566 157.831 10.5486C157.831 10.1006 157.953 9.71325 158.195 9.38659C158.447 9.05992 158.793 8.80792 159.231 8.63059C159.67 8.45325 160.174 8.36459 160.743 8.36459C161.565 8.36459 162.297 8.54659 162.941 8.91059C163.119 9.00392 163.221 9.13459 163.249 9.30259C163.287 9.46125 163.268 9.61525 163.193 9.76459C163.128 9.90459 163.021 10.0073 162.871 10.0726C162.722 10.1286 162.549 10.1099 162.353 10.0166C162.064 9.86725 161.784 9.75992 161.513 9.69459C161.252 9.62925 161 9.59659 160.757 9.59659C160.3 9.59659 159.959 9.67592 159.735 9.83459C159.521 9.99325 159.413 10.2033 159.413 10.4646C159.413 10.8753 159.679 11.1273 160.211 11.2206L161.611 11.4866C162.218 11.5986 162.675 11.8039 162.983 12.1026C163.301 12.4013 163.459 12.8026 163.459 13.3066C163.459 13.9879 163.193 14.5246 162.661 14.9166C162.129 15.2993 161.42 15.4906 160.533 15.4906ZM168.237 15.4906C167.463 15.4906 166.795 15.3459 166.235 15.0566C165.675 14.7673 165.241 14.3566 164.933 13.8246C164.635 13.2926 164.485 12.6626 164.485 11.9346C164.485 11.2253 164.63 10.6046 164.919 10.0726C165.218 9.54059 165.624 9.12525 166.137 8.82659C166.66 8.51859 167.253 8.36459 167.915 8.36459C168.886 8.36459 169.651 8.67259 170.211 9.28859C170.781 9.90459 171.065 10.7446 171.065 11.8086C171.065 12.1539 170.841 12.3266 170.393 12.3266H166.165C166.296 13.5493 166.996 14.1606 168.265 14.1606C168.508 14.1606 168.779 14.1326 169.077 14.0766C169.385 14.0113 169.675 13.9039 169.945 13.7546C170.188 13.6146 170.393 13.5726 170.561 13.6286C170.729 13.6753 170.846 13.7733 170.911 13.9226C170.986 14.0719 170.995 14.2399 170.939 14.4266C170.893 14.6039 170.762 14.7579 170.547 14.8886C170.221 15.0939 169.843 15.2479 169.413 15.3506C168.993 15.4439 168.601 15.4906 168.237 15.4906ZM167.985 9.55459C167.472 9.55459 167.057 9.71325 166.739 10.0306C166.422 10.3479 166.231 10.7773 166.165 11.3186H169.609C169.572 10.7493 169.413 10.3153 169.133 10.0166C168.863 9.70859 168.48 9.55459 167.985 9.55459ZM173.347 15.4626C172.75 15.4626 172.451 15.1639 172.451 14.5666V9.27459C172.451 8.68659 172.736 8.39259 173.305 8.39259C173.875 8.39259 174.159 8.68659 174.159 9.27459V9.70859C174.495 8.90592 175.214 8.45792 176.315 8.36459C176.717 8.31792 176.941 8.54659 176.987 9.05059C177.034 9.54525 176.791 9.82059 176.259 9.87659L175.951 9.90459C174.803 10.0166 174.229 10.6046 174.229 11.6686V14.5666C174.229 15.1639 173.935 15.4626 173.347 15.4626ZM181.13 15.4626C180.663 15.4626 180.318 15.2153 180.094 14.7206L177.868 9.55459C177.737 9.24659 177.732 8.97592 177.854 8.74259C177.984 8.50925 178.241 8.39259 178.624 8.39259C178.838 8.39259 179.011 8.44392 179.142 8.54659C179.272 8.63992 179.389 8.82192 179.492 9.09259L181.172 13.2926L182.908 9.07859C183.01 8.81725 183.127 8.63992 183.258 8.54659C183.398 8.44392 183.584 8.39259 183.818 8.39259C184.116 8.39259 184.326 8.50925 184.448 8.74259C184.569 8.97592 184.564 9.24192 184.434 9.54059L182.166 14.7206C181.96 15.2153 181.615 15.4626 181.13 15.4626ZM186.608 7.10459C186.282 7.10459 186.025 7.02525 185.838 6.86659C185.661 6.69859 185.572 6.46992 185.572 6.18059C185.572 5.88192 185.661 5.65325 185.838 5.49459C186.025 5.33592 186.282 5.25659 186.608 5.25659C187.299 5.25659 187.644 5.56459 187.644 6.18059C187.644 6.79659 187.299 7.10459 186.608 7.10459ZM186.608 15.4486C186.328 15.4486 186.114 15.3646 185.964 15.1966C185.815 15.0286 185.74 14.7953 185.74 14.4966V9.35859C185.74 8.72392 186.03 8.40659 186.608 8.40659C187.196 8.40659 187.49 8.72392 187.49 9.35859V14.4966C187.49 14.7953 187.416 15.0286 187.266 15.1966C187.117 15.3646 186.898 15.4486 186.608 15.4486ZM192.473 15.4906C191.754 15.4906 191.129 15.3459 190.597 15.0566C190.065 14.7579 189.654 14.3379 189.365 13.7966C189.075 13.2553 188.931 12.6206 188.931 11.8926C188.931 11.1646 189.075 10.5393 189.365 10.0166C189.654 9.48459 190.065 9.07859 190.597 8.79859C191.129 8.50925 191.754 8.36459 192.473 8.36459C192.781 8.36459 193.112 8.40659 193.467 8.49059C193.831 8.57459 194.171 8.71459 194.489 8.91059C194.675 9.02259 194.783 9.16725 194.811 9.34459C194.848 9.52192 194.825 9.68525 194.741 9.83459C194.666 9.98392 194.549 10.0913 194.391 10.1566C194.241 10.2219 194.069 10.1986 193.873 10.0866C193.443 9.84392 193.028 9.72259 192.627 9.72259C192.02 9.72259 191.549 9.91392 191.213 10.2966C190.886 10.6699 190.723 11.2066 190.723 11.9066C190.723 12.5973 190.886 13.1433 191.213 13.5446C191.549 13.9366 192.02 14.1326 192.627 14.1326C193.028 14.1326 193.443 14.0159 193.873 13.7826C194.069 13.6706 194.241 13.6473 194.391 13.7126C194.54 13.7779 194.647 13.8899 194.713 14.0486C194.778 14.1979 194.792 14.3613 194.755 14.5386C194.717 14.7066 194.61 14.8466 194.433 14.9586C194.125 15.1453 193.798 15.2806 193.453 15.3646C193.107 15.4486 192.781 15.4906 192.473 15.4906ZM199.149 15.4906C198.375 15.4906 197.707 15.3459 197.147 15.0566C196.587 14.7673 196.153 14.3566 195.845 13.8246C195.547 13.2926 195.397 12.6626 195.397 11.9346C195.397 11.2253 195.542 10.6046 195.831 10.0726C196.13 9.54059 196.536 9.12525 197.049 8.82659C197.572 8.51859 198.165 8.36459 198.827 8.36459C199.798 8.36459 200.563 8.67259 201.123 9.28859C201.693 9.90459 201.977 10.7446 201.977 11.8086C201.977 12.1539 201.753 12.3266 201.305 12.3266H197.077C197.208 13.5493 197.908 14.1606 199.177 14.1606C199.42 14.1606 199.691 14.1326 199.989 14.0766C200.297 14.0113 200.587 13.9039 200.857 13.7546C201.1 13.6146 201.305 13.5726 201.473 13.6286C201.641 13.6753 201.758 13.7733 201.823 13.9226C201.898 14.0719 201.907 14.2399 201.851 14.4266C201.805 14.6039 201.674 14.7579 201.459 14.8886C201.133 15.0939 200.755 15.2479 200.325 15.3506C199.905 15.4439 199.513 15.4906 199.149 15.4906ZM198.897 9.55459C198.384 9.55459 197.969 9.71325 197.651 10.0306C197.334 10.3479 197.143 10.7773 197.077 11.3186H200.521C200.484 10.7493 200.325 10.3153 200.045 10.0166C199.775 9.70859 199.392 9.55459 198.897 9.55459ZM205.869 15.4906C205.468 15.4906 205.043 15.4486 204.595 15.3646C204.147 15.2806 203.746 15.1359 203.391 14.9306C203.195 14.8186 203.074 14.6833 203.027 14.5246C202.981 14.3566 202.985 14.2026 203.041 14.0626C203.107 13.9133 203.209 13.8059 203.349 13.7406C203.499 13.6753 203.671 13.6893 203.867 13.7826C204.241 13.9599 204.591 14.0859 204.917 14.1606C205.244 14.2259 205.566 14.2586 205.883 14.2586C206.331 14.2586 206.663 14.1839 206.877 14.0346C207.101 13.8759 207.213 13.6706 207.213 13.4186C207.213 13.0266 206.924 12.7746 206.345 12.6626L204.945 12.3966C203.76 12.1726 203.167 11.5566 203.167 10.5486C203.167 10.1006 203.289 9.71325 203.531 9.38659C203.783 9.05992 204.129 8.80792 204.567 8.63059C205.006 8.45325 205.51 8.36459 206.079 8.36459C206.901 8.36459 207.633 8.54659 208.277 8.91059C208.455 9.00392 208.557 9.13459 208.585 9.30259C208.623 9.46125 208.604 9.61525 208.529 9.76459C208.464 9.90459 208.357 10.0073 208.207 10.0726C208.058 10.1286 207.885 10.1099 207.689 10.0166C207.4 9.86725 207.12 9.75992 206.849 9.69459C206.588 9.62925 206.336 9.59659 206.093 9.59659C205.636 9.59659 205.295 9.67592 205.071 9.83459C204.857 9.99325 204.749 10.2033 204.749 10.4646C204.749 10.8753 205.015 11.1273 205.547 11.2206L206.947 11.4866C207.554 11.5986 208.011 11.8039 208.319 12.1026C208.637 12.4013 208.795 12.8026 208.795 13.3066C208.795 13.9879 208.529 14.5246 207.997 14.9166C207.465 15.2993 206.756 15.4906 205.869 15.4906Z" fill="#212529"/>
</svg>
